<svg version="1.2" xmlns="http://www.w3.org/2000/svg" viewBox="0 0 1584 1224" width="1584" height="1224">
	<title>Prototype1-pdf</title>
	<defs>
		<clipPath clipPathUnits="userSpaceOnUse" id="cp1">
			<path d="m0 0h1584v1224h-1584z"/>
		</clipPath>
	</defs>
	<style>
		tspan { white-space:pre } 
		.s0 { fill: none;stroke: #c90d0c;stroke-linecap: round;stroke-width: 1.4 } 
		.s1 { fill: none;stroke: #c90d0c;stroke-linecap: round;stroke-width: .5 } 
		.t2 { font-size: 16px;fill: #c90d0c;font-family: "Helvetica" } 
		.s3 { fill: none;stroke: #c90d0c;stroke-linecap: round;stroke-width: 1.2 } 
		.s4 { fill: none;stroke: #c90d0c;stroke-linecap: round;stroke-width: .7 } 
		.t5 { font-size: 11px;fill: #808080;font-family: "Helvetica" } 
		.t6 { font-size: 8px;fill: #808080;font-family: "Helvetica" } 
		.t7 { font-size: 8px;line-height: 12px;fill: #808080;font-family: "Helvetica" } 
		.t8 { font-size: 11px;line-height: 12px;fill: #c90d0c;font-family: "Helvetica" } 
		.t9 { font-size: 11px;line-height: 12px;fill: #808080;font-family: "Helvetica" } 
		.s10 { opacity: .8;fill: #c90d0c;stroke: #c90d0c;stroke-width: .7 } 
		.t11 { font-size: 11px;line-height: 11px;fill: #808080;font-family: "Helvetica" } 
		.s12 { fill: none;stroke: #0dab76;stroke-linecap: round;stroke-width: .7 } 
		.s13 { opacity: .8;fill: #0dab76;stroke: #0dab76;stroke-width: 4.7 } 
	</style>
	<g id="Page 1" clip-path="url(#cp1)">
		<path id="Path 1" class="s0" d="m139.8 1116v-1008m0 0h1304.4m0 0v1008m0 0h-1304.4"/>
		<path id="Path 2" class="s1" d="m157.6 1116v-990.2"/>
		<text id="A" style="opacity: .8;transform: matrix(1,0,0,1,143.32,228.996)" >
			<tspan x="0" y="0" class="t2">A
</tspan>
		</text>
		<text id="B" style="opacity: .8;transform: matrix(1,0,0,1,143.32,427.038)" >
			<tspan x="0" y="0" class="t2">B
</tspan>
		</text>
		<path id="Path 5" class="s1" d="m139.8 323.8h17.8"/>
		<text id="C" style="opacity: .8;transform: matrix(1,0,0,1,142.879,625.081)" >
			<tspan x="0" y="0" class="t2">C
</tspan>
		</text>
		<path id="Path 7" class="s1" d="m139.8 521.9h17.8"/>
		<text id="D" style="opacity: .8;transform: matrix(1,0,0,1,142.879,823.123)" >
			<tspan x="0" y="0" class="t2">D
</tspan>
		</text>
		<path id="Path 9" class="s1" d="m139.8 719.9h17.8"/>
		<text id="E" style="opacity: .8;transform: matrix(1,0,0,1,143.32,1021.165)" >
			<tspan x="0" y="0" class="t2">E
</tspan>
		</text>
		<path id="Path 11" class="s1" d="m139.8 918h17.8m0-792.2h1268.8"/>
		<text id="1" style="opacity: .8;transform: matrix(1,0,0,1,258.843,121.081)" >
			<tspan x="0" y="0" class="t2">1
</tspan>
		</text>
		<text id="2" style="opacity: .8;transform: matrix(1,0,0,1,470.326,121.081)" >
			<tspan x="0" y="0" class="t2">2
</tspan>
		</text>
		<path id="Path 14" class="s1" d="m369 125.8v-17.8"/>
		<text id="3" style="opacity: .8;transform: matrix(1,0,0,1,681.81,121.081)" >
			<tspan x="0" y="0" class="t2">3
</tspan>
		</text>
		<path id="Path 16" class="s1" d="m580.5 125.8v-17.8"/>
		<text id="4" style="opacity: .8;transform: matrix(1,0,0,1,893.289,121.081)" >
			<tspan x="0" y="0" class="t2">4
</tspan>
		</text>
		<path id="Path 18" class="s1" d="m792 125.8v-17.8"/>
		<text id="5" style="opacity: .8;transform: matrix(1,0,0,1,1104.773,121.081)" >
			<tspan x="0" y="0" class="t2">5
</tspan>
		</text>
		<path id="Path 20" class="s1" d="m1003.5 125.8v-17.8"/>
		<text id="6" style="opacity: .8;transform: matrix(1,0,0,1,1316.257,121.081)" >
			<tspan x="0" y="0" class="t2">6
</tspan>
		</text>
		<path id="Path 22" class="s1" d="m1215 125.8v-17.8m211.4 17.8v990.2"/>
		<text id="A" style="opacity: .8;transform: matrix(1,0,0,1,1430.002,228.996)" >
			<tspan x="0" y="0" class="t2">A
</tspan>
		</text>
		<text id="B" style="opacity: .8;transform: matrix(1,0,0,1,1430.002,427.038)" >
			<tspan x="0" y="0" class="t2">B
</tspan>
		</text>
		<path id="Path 25" class="s1" d="m1444.2 323.8h-17.8"/>
		<text id="C" style="opacity: .8;transform: matrix(1,0,0,1,1429.562,625.081)" >
			<tspan x="0" y="0" class="t2">C
</tspan>
		</text>
		<path id="Path 27" class="s1" d="m1444.2 521.9h-17.8"/>
		<text id="D" style="opacity: .8;transform: matrix(1,0,0,1,1429.562,823.123)" >
			<tspan x="0" y="0" class="t2">D
</tspan>
		</text>
		<path id="Path 29" class="s1" d="m1444.2 719.9h-17.8"/>
		<text id="E" style="opacity: .8;transform: matrix(1,0,0,1,1430.002,1021.165)" >
			<tspan x="0" y="0" class="t2">E
</tspan>
		</text>
		<path id="Path 31" class="s1" d="m1444.2 918h-17.8"/>
		<text id="Made with Tinkercad®" style="opacity: .8;transform: matrix(1,0,0,1,169.412,1104.141)" >
			<tspan x="0" y="0" class="t2">Made with Tinkercad®
</tspan>
		</text>
		<path id="Path 33" class="s1" d="m952.1 1116h474.3m-474.3-35.6h474.3m-474.3-35.6h474.3m-474.3 71.2v-35.6m0 0v-35.6m474.3 71.2v-35.6m0 11.9v-47.5"/>
		<text id="Title:Prototype 1" style="opacity: .8;transform: matrix(1,0,0,1,963.953,1068.565)" >
			<tspan x="0" y="0" class="t2">Title:Prototype 1
</tspan>
		</text>
		<text id="Date: 12/6/2023, 11:48:05 AM" style="opacity: .8;transform: matrix(1,0,0,1,963.953,1104.141)" >
			<tspan x="0" y="0" class="t2">Date: 12/6/2023, 11:48:05 AM
</tspan>
		</text>
		<text id="Sheet: 1/1" style="opacity: .8;transform: matrix(1,0,0,1,1307.859,1104.141)" >
			<tspan x="0" y="0" class="t2">Sheet: 1/1
</tspan>
		</text>
		<path id="Path 37" class="s3" d="m507.4 610.2h-23.7m0-8.3h23.7m-23.7 8.3v-8.3m23.7 8.3v-8.3"/>
		<path id="Path 38" class="s4" d="m519.2 606.1h-11.8m-35.6 0h11.9"/>
		<text id="R2" style="opacity: .7;transform: matrix(1,0,0,1,488.368,597.142)" >
			<tspan x="0" y="0" class="t5">R2
</tspan>
		</text>
		<text id="10k" style="opacity: .7;transform: matrix(1,0,0,1,486.497,620.86)" >
			<tspan x="0" y="0" class="t5">10k
</tspan>
		</text>
		<path id="Path 41" class="s3" d="m578.5 606.1l3-4.8m0 0l3.6 9.5m0 0l3.5-9.5m0 0l3.6 9.5m0 0l3.5-9.5m0 0l3.6 9.5m0 0l3-4.7"/>
		<path id="Path 42" class="s4" d="m596.3 591.2l-6.5 6.6m0 0l1.8-4.2m2.4 2.4l-4.2 1.8m7.1-3.6l-1.8 4.2m0 0l6.6-6.6m-2.4 4.8l-4.2 1.8m-28.4 7.7h11.8m35.6 0h-11.8"/>
		<text id="R1" style="opacity: .7;transform: matrix(1,0,0,1,578.541,620.86)" >
			<tspan x="0" y="0" class="t5">R1
</tspan>
		</text>
		<path id="Path 44" class="s3" d="m685.3 689.1v-201.6m0 0h94.8m0 0v201.6m0 0h-94.8"/>
		<path id="Path 45" class="s4" d="m673.4 594.2h11.9"/>
		<text id="A0 A1 A2 A3 A4 A5" style="opacity: .7;transform: matrix(1,0,0,1,697,590.572)" >
			<tspan x="0" y="5.8" class="t6">A0</tspan><tspan  y="5.8" class="t7">
</tspan>
			<tspan x="0" y="17.7" class="t7">A1
</tspan>
			<tspan x="0" y="29.5" class="t7">A2
</tspan>
			<tspan x="0" y="41.4" class="t7">A3
</tspan>
			<tspan x="0" y="53.2" class="t7">A4
</tspan>
			<tspan x="0" y="65.1" class="t7">A5
</tspan>
		</text>
		<path id="Path 47" class="s4" d="m673.4 606.1h11.9m-11.9 11.8h11.9m-11.9 11.9h11.9m-11.9 11.8h11.9m-11.9 11.9h11.9m-11.9-94.9h11.9"/>
		<text id="IOREF RES" style="opacity: .7;transform: matrix(1,0,0,1,697,554.995)" >
			<tspan x="0" y="5.8" class="t7">IOREF
</tspan>
			<tspan x="0" y="17.7" class="t7">RES
</tspan>
		</text>
		<path id="Path 49" class="s4" d="m673.4 570.5h11.9m-11.9-71.2h11.9"/>
		<text id="VIN 5V 3.3V" style="opacity: .7;transform: matrix(1,0,0,1,697,495.701)" >
			<tspan x="0" y="5.8" class="t7">VIN</tspan><tspan  y="5.8" class="t7">
</tspan>
			<tspan x="0" y="17.7" class="t7">5V</tspan><tspan  y="17.7" class="t7">
</tspan>
			<tspan x="0" y="29.5" class="t7">3.3V
</tspan>
		</text>
		<path id="Path 51" class="s4" d="m673.4 511.2h11.9m-11.9 11.9h11.9m-11.9 23.7h11.9"/>
		<text id="AREF" style="opacity: .7;transform: matrix(1,0,0,1,697.129,548.947)" >
			<tspan x="0" y="0" class="t7">AREF
</tspan>
		</text>
		<path id="Path 53" class="s4" d="m673.4 677.2h11.9"/>
		<text id="GND" style="opacity: .7;transform: matrix(1,0,0,1,697.129,679.394)" >
			<tspan x="0" y="0" class="t7">GND
</tspan>
		</text>
		<path id="Path 55" class="s4" d="m792 499.3h-11.9"/>
		<text id="RX TX D2" style="opacity: .7;transform: matrix(1,0,0,1,757,495.701)" >
			<tspan x="0" y="5.8" class="t7">RX</tspan><tspan  y="5.8" class="t7">
</tspan>
			<tspan x="1" y="17.7" class="t7">TX</tspan><tspan  y="17.7" class="t7">
</tspan>
			<tspan x=".4" y="29.5" class="t7">D2
</tspan>
		</text>
		<path id="Path 57" class="s4" d="m792 511.2h-11.9m11.9 11.9h-11.9m11.9 130.4h-11.9"/>
		<text id="D13" style="opacity: .7;transform: matrix(1,0,0,1,753.058,655.677)" >
			<tspan x="0" y="0" class="t7">D13
</tspan>
		</text>
		<path id="Path 59" class="s4" d="m792 534.9h-11.9"/>
		<text id="D3 D4 D5 D6 D7 D8 D9 D10 D11 D12" style="opacity: .7;transform: matrix(1,0,0,1,753,531.278)" >
			<tspan x="5" y="5.8" class="t7">D3</tspan><tspan  y="5.8" class="t7">
</tspan>
			<tspan x="5" y="17.7" class="t7">D4
</tspan>
			<tspan x="5" y="29.5" class="t7">D5
</tspan>
			<tspan x="5" y="41.4" class="t7">D6
</tspan>
			<tspan x="5" y="53.2" class="t7">D7
</tspan>
			<tspan x="5" y="65.1" class="t7">D8
</tspan>
			<tspan x="5" y="76.9" class="t7">D9
</tspan>
			<tspan x="0" y="88.8" class="t7">D10
</tspan>
			<tspan x="0" y="100.7" class="t7">D11
</tspan>
			<tspan x="0" y="112.5" class="t7">D12
</tspan>
		</text>
		<path id="Path 61" class="s4" d="m792 546.8h-11.9m11.9 11.8h-11.9m11.9 11.9h-11.9m11.9 11.9h-11.9m11.9 11.8h-11.9m11.9 11.9h-11.9m11.9 11.8h-11.9m11.9 11.9h-11.9m11.9 11.8h-11.9m11.9 23.8h-11.9"/>
		<text id="SDA SCL" style="opacity: .7;transform: matrix(1,0,0,1,752,661.725)" >
			<tspan x="0" y="5.8" class="t7">SDA
</tspan>
			<tspan x="0" y="17.7" class="t7">SCL
</tspan>
		</text>
		<path id="Path 63" class="s4" d="m792 677.2h-11.9"/>
		<text id="Arduino UNO" style="opacity: .8;transform: matrix(1,0,0,1,713,583.368)" >
			<tspan x="0" y="8" class="t8">Arduino</tspan><tspan  y="8" class="t8">
</tspan>
			<tspan x="7" y="20.4" class="t8">UNO
</tspan>
		</text>
		<text id="U1" style="opacity: .7;transform: matrix(1,0,0,1,725.545,481.553)" >
			<tspan x="0" y="0" class="t9">U1
</tspan>
		</text>
		<path id="Path 66" class="s3" d="m875 600.1v6m0 0v5.9"/>
		<path id="Path 67" class="s4" d="m866.7 596.6l6.5-6.5m-1.2 7.1l6.6-6.5"/>
		<path id="Path 68" class="s3" d="m863.2 600.1l11.8 6m0 0l-11.8 5.9m0 0v-11.9"/>
		<path id="Path 69" class="s10" d="m869.1 591.8l2.4 2.4 1.7-4.1z"/>
		<path id="Path 70" class="s10" d="m874.4 592.4l2.4 2.4 1.8-4.1z"/>
		<path id="Path 71" class="s4" d="m886.9 606.1h-11.9m-23.7 0h11.9"/>
		<text id="D1 RED" style="opacity: .7;transform: matrix(1,0,0,1,857,617.2)" >
			<tspan x="0" y="8" class="t9">D1</tspan><tspan  y="8" class="t11">
</tspan>
			<tspan x="0" y="18.6" class="t11">RED
</tspan>
		</text>
		<path id="Path 73" class="s3" d="m969.9 610.2h-23.7m0-8.3h23.7m-23.7 8.3v-8.3m23.7 8.3v-8.3"/>
		<path id="Path 74" class="s4" d="m981.7 606.1h-11.8m-35.6 0h11.9"/>
		<text id="R3" style="opacity: .7;transform: matrix(1,0,0,1,950.862,597.142)" >
			<tspan x="0" y="0" class="t11">R3
</tspan>
		</text>
		<text id="220" style="opacity: .7;transform: matrix(1,0,0,1,948.677,620.86)" >
			<tspan x="0" y="0" class="t11">220
</tspan>
		</text>
		<path id="Path 77" class="s3" d="m637.8 428.2l-5.9 8.9m5.9-8.9l6 8.9"/>
		<path id="Path 78" class="s4" d="m637.8 440v-11.8"/>
		<text id="U1_3.3V" style="opacity: .7;transform: matrix(1,0,0,1,631.906,422.259)" >
			<tspan x="0" y="0" class="t11">U1_3.3V
</tspan>
		</text>
		<path id="Path 80" class="s3" d="m714.9 739.5l5.9 8.9m0 0l6-8.9"/>
		<path id="Path 81" class="s4" d="m720.8 736.5v11.9"/>
		<text id="U1_GND" style="opacity: .7;transform: matrix(1,0,0,1,714.918,760.235)" >
			<tspan x="0" y="0" class="t11">U1_GND
</tspan>
		</text>
		<path id="Path 83" class="s12" d="m519.2 606.1h11.9m35.6 0h-11.9m237.2-47.5h23.7m-284.6 47.5v106.7m23.7-106.7v106.7m-23.7 0h23.7m260.9-154.2v154.2m-260.9 0h260.9"/>
		<path id="Path 84" class="s13" d="m554.9 712.8q0 0.1 0 0.1-0.1 0-0.1 0-0.1 0-0.1-0.1 0-0.1 0.1-0.1 0 0 0.1 0 0 0 0 0.1z"/>
		<path id="Path 85" class="s12" d="m471.8 606.1h-11.8m213.4 71.1h-11.8m320.1-71.1h11.9m-533.6 0v118.6m201.6-47.5v47.5m-201.6 0h201.6m59.2 11.8v-11.8m-59.2 0h59.2m272.8-118.6v118.6m-272.8 0h272.8"/>
		<path id="Path 86" class="s13" d="m661.6 724.7q0 0 0 0 0 0.1-0.1 0 0 0 0 0 0-0.1 0-0.1 0.1 0 0.1 0 0 0 0 0.1z"/>
		<path id="Path 87" class="s13" d="m720.9 724.7q0 0 0 0-0.1 0.1-0.1 0 0 0 0 0 0-0.1 0-0.1 0 0 0.1 0 0 0 0 0.1z"/>
		<path id="Path 88" class="s12" d="m614.1 606.1h11.9m47.4-83h-23.7m-23.7 83v-154.2m11.8-11.9v11.9m-11.8 0h11.8m11.9 71.2v-71.2m-11.9 0h11.9"/>
		<path id="Path 89" class="s13" d="m637.9 451.9q0 0.1 0 0.1-0.1 0-0.1 0-0.1 0-0.1-0.1 0 0 0.1-0.1 0 0 0.1 0 0 0.1 0 0.1z"/>
		<path id="Path 90" class="s12" d="m792 570.5h11.9m47.4 35.6h-11.9m-35.5-35.6v35.6m0 0h35.5m47.5 0h11.8m35.6 0h-11.9m-23.7 0h23.7"/>
	</g>
</svg>